<svg width="8" height="8" viewBox="0 0 8 8" fill="none" xmlns="http://www.w3.org/2000/svg">
<path d="M8 6.48557L7.90872 6.41174C7.64978 6.20026 7.42313 5.95773 7.2349 5.69072C7.02932 5.32221 6.90611 4.91979 6.87248 4.50705V3.29139C6.87426 2.6431 6.61772 2.01654 6.15107 1.52941C5.68442 1.04229 5.03977 0.728131 4.33825 0.645973V0.328523C4.33825 0.241394 4.3005 0.157832 4.23328 0.0962223C4.16607 0.0346122 4.07492 0 3.97987 0C3.88481 0 3.79366 0.0346122 3.72645 0.0962223C3.65924 0.157832 3.62148 0.241394 3.62148 0.328523V0.650895C2.92624 0.738975 2.28939 1.05503 1.82887 1.54052C1.36835 2.02601 1.11536 2.64803 1.11678 3.29139V4.50705C1.08316 4.91979 0.95994 5.32221 0.754362 5.69072C0.569364 5.95706 0.346361 6.19955 0.0912752 6.41174L0 6.48557V7.17953H8V6.48557Z" fill="#009FE3"/>
<path d="M3.29395 7.43799C3.31749 7.59398 3.40181 7.73689 3.53134 7.84033C3.66087 7.94377 3.82685 8.00075 3.99864 8.00075C4.17043 8.00075 4.33642 7.94377 4.46595 7.84033C4.59548 7.73689 4.6798 7.59398 4.70334 7.43799H3.29395Z" fill="#009FE3"/>
</svg>
